<?xml version="1.0" encoding="UTF-8"?>
<!DOCTYPE svg PUBLIC "-//W3C//DTD SVG 1.1//EN" "http://www.w3.org/Graphics/SVG/1.1/DTD/svg11.dtd">
<svg xmlns="http://www.w3.org/2000/svg" version="1.1" width="489px" height="156px" style="shape-rendering:geometricPrecision; text-rendering:geometricPrecision; image-rendering:optimizeQuality; fill-rule:evenodd; clip-rule:evenodd" xmlns:xlink="http://www.w3.org/1999/xlink">
<g><path style="opacity:1" fill="#fefffe" d="M -0.5,-0.5 C 162.5,-0.5 325.5,-0.5 488.5,-0.5C 488.5,51.5 488.5,103.5 488.5,155.5C 325.5,155.5 162.5,155.5 -0.5,155.5C -0.5,147.5 -0.5,139.5 -0.5,131.5C 79.5,131.5 159.5,131.5 239.5,131.5C 239.5,132.833 239.5,134.167 239.5,135.5C 245.833,135.5 252.167,135.5 258.5,135.5C 258.5,126.833 258.5,118.167 258.5,109.5C 328.833,109.5 399.167,109.5 469.5,109.5C 469.5,87.5 469.5,65.5 469.5,43.5C 399.167,43.5 328.833,43.5 258.5,43.5C 258.5,33.8333 258.5,24.1667 258.5,14.5C 172.167,14.5 85.8333,14.5 -0.5,14.5C -0.5,9.5 -0.5,4.5 -0.5,-0.5 Z"/></g>
<g><path style="opacity:1" fill="#f7f7f7" d="M -0.5,14.5 C 85.8333,14.5 172.167,14.5 258.5,14.5C 258.5,24.1667 258.5,33.8333 258.5,43.5C 328.833,43.5 399.167,43.5 469.5,43.5C 469.5,65.5 469.5,87.5 469.5,109.5C 399.167,109.5 328.833,109.5 258.5,109.5C 258.5,118.167 258.5,126.833 258.5,135.5C 252.167,135.5 245.833,135.5 239.5,135.5C 239.5,134.167 239.5,132.833 239.5,131.5C 159.5,131.5 79.5,131.5 -0.5,131.5C -0.5,92.5 -0.5,53.5 -0.5,14.5 Z"/></g>
<g><path style="opacity:1" fill="#6289d7" d="M 71.5,26.5 C 89.4474,32.0383 107.447,37.3716 125.5,42.5C 125.833,64.8433 125.5,87.1766 124.5,109.5C 109.242,116.196 93.7422,122.196 78,127.5C 60.8594,122.397 43.6927,117.397 26.5,112.5C 26.3334,90.1642 26.5,67.8308 27,45.5C 41.7146,38.8734 56.5479,32.5401 71.5,26.5 Z"/></g>
<g><path style="opacity:1" fill="#f4f5f7" d="M 71.5,32.5 C 86.136,36.994 100.803,41.494 115.5,46C 114.449,47.3848 113.116,48.3848 111.5,49C 101.614,52.5502 91.9472,56.5502 82.5,61C 78.7636,61.6099 75.0969,61.2765 71.5,60C 59.5763,56.5815 47.9096,52.5815 36.5,48C 48.1921,42.7206 59.8588,37.554 71.5,32.5 Z"/></g>
<g><path style="opacity:1" fill="#f7f7f7" d="M 116.5,48.5 C 117.5,48.5 118.5,48.5 119.5,48.5C 119.833,67.5117 119.5,86.5117 118.5,105.5C 106.384,110.95 94.0511,115.95 81.5,120.5C 80.1667,101.5 80.1667,82.5 81.5,63.5C 93.3722,58.7239 105.039,53.7239 116.5,48.5 Z"/></g>
<g><path style="opacity:1" fill="#f7f7f7" d="M 32.5,50.5 C 47.4557,54.9889 62.4557,59.3222 77.5,63.5C 77.5,82.5 77.5,101.5 77.5,120.5C 62.4658,116.878 47.6324,112.544 33,107.5C 32.5001,88.5029 32.3334,69.5029 32.5,50.5 Z"/></g>
<g><path style="opacity:1" fill="#558ad4" d="M 290.5,52.5 C 297.761,52.0485 304.261,54.0485 310,58.5C 309.421,64.0289 306.921,64.8622 302.5,61C 286.138,56.7208 277.971,62.8875 278,79.5C 285.54,94.3184 295.707,96.3184 308.5,85.5C 312.616,89.0235 312.283,92.1902 307.5,95C 291.02,102.509 279.186,98.0088 272,81.5C 270.106,66.6094 276.273,56.9428 290.5,52.5 Z"/></g>
<g><path style="opacity:1" fill="#4c85d3" d="M 156.5,79.5 C 155.517,83.2984 155.183,87.2984 155.5,91.5C 164.5,91.5 173.5,91.5 182.5,91.5C 182.5,93.5 182.5,95.5 182.5,97.5C 171.5,97.5 160.5,97.5 149.5,97.5C 149.5,83.1667 149.5,68.8333 149.5,54.5C 159.5,54.5 169.5,54.5 179.5,54.5C 179.5,56.5 179.5,58.5 179.5,60.5C 171.5,60.5 163.5,60.5 155.5,60.5C 155.174,64.8839 155.508,69.2172 156.5,73.5C 162.104,72.5456 167.771,72.2123 173.5,72.5C 173.5,74.5 173.5,76.5 173.5,78.5C 167.773,78.2598 162.106,78.5931 156.5,79.5 Z"/></g>
<g><path style="opacity:1" fill="#5288d4" d="M 202.5,66.5 C 206.514,66.3345 210.514,66.5012 214.5,67C 220.644,68.7772 220.977,71.2772 215.5,74.5C 207.718,70.5937 201.551,72.2604 197,79.5C 196.152,86.9912 199.485,91.3245 207,92.5C 210.478,92.3415 213.645,91.3415 216.5,89.5C 219.066,90.8056 220.066,92.6389 219.5,95C 208.638,101.003 199.472,99.1701 192,89.5C 188.487,78.5315 191.987,70.8649 202.5,66.5 Z"/></g>
<g><path style="opacity:1" fill="#5187d3" d="M 240.5,66.5 C 249.258,65.3581 256.424,68.0248 262,74.5C 265.417,91.7568 258.25,99.5901 240.5,98C 229.545,93.5853 226.045,85.752 230,74.5C 232.94,70.9632 236.44,68.2965 240.5,66.5 Z"/></g>
<g><path style="opacity:1" fill="#5187d3" d="M 322.5,67.5 C 330.174,67.3336 337.841,67.5003 345.5,68C 350.287,70.799 351.787,74.9656 350,80.5C 348.723,82.7311 346.889,84.3978 344.5,85.5C 345.907,89.915 348.907,91.5817 353.5,90.5C 353.5,92.8333 353.5,95.1667 353.5,97.5C 351.143,97.6633 348.81,97.4966 346.5,97C 342.774,93.9391 339.774,90.2725 337.5,86C 334.571,85.2228 331.737,85.3895 329,86.5C 328.501,90.1516 328.335,93.8183 328.5,97.5C 326.5,97.5 324.5,97.5 322.5,97.5C 322.5,87.5 322.5,77.5 322.5,67.5 Z"/></g>
<g><path style="opacity:1" fill="#5489d4" d="M 372.5,66.5 C 374.792,66.2436 376.959,66.5769 379,67.5C 384.167,77.1667 389.333,86.8333 394.5,96.5C 390.908,98.2997 388.241,97.4664 386.5,94C 379.457,92.7189 372.79,93.7189 366.5,97C 364.167,97.6667 361.833,97.6667 359.5,97C 364.127,88.9137 368.627,80.747 373,72.5C 373.49,70.4546 373.323,68.4546 372.5,66.5 Z"/></g>
<g><path style="opacity:1" fill="#5087d3" d="M 422.5,79.5 C 422.5,81.1667 422.5,82.8333 422.5,84.5C 419.287,84.19 416.287,84.5233 413.5,85.5C 412.504,85.4142 411.671,85.7476 411,86.5C 410.501,90.1516 410.335,93.8183 410.5,97.5C 408.5,97.5 406.5,97.5 404.5,97.5C 404.5,87.5 404.5,77.5 404.5,67.5C 411.833,67.5 419.167,67.5 426.5,67.5C 426.5,69.5 426.5,71.5 426.5,73.5C 421.167,73.5 415.833,73.5 410.5,73.5C 410.192,75.924 410.526,78.2573 411.5,80.5C 415.094,79.5741 418.76,79.2408 422.5,79.5 Z"/></g>
<g><path style="opacity:1" fill="#5388d4" d="M 433.5,67.5 C 442.833,67.5 452.167,67.5 461.5,67.5C 461.5,69.5 461.5,71.5 461.5,73.5C 457.833,73.5 454.167,73.5 450.5,73.5C 450.5,81.5 450.5,89.5 450.5,97.5C 448.5,97.5 446.5,97.5 444.5,97.5C 444.5,89.5 444.5,81.5 444.5,73.5C 440.833,73.5 437.167,73.5 433.5,73.5C 433.5,71.5 433.5,69.5 433.5,67.5 Z"/></g>
<g><path style="opacity:1" fill="#f2f4f6" d="M 241.5,72.5 C 246.364,72.0011 250.864,73.0011 255,75.5C 259.616,85.4757 256.449,91.1424 245.5,92.5C 236.94,91.7337 233.44,87.067 235,78.5C 236.494,75.6865 238.66,73.6865 241.5,72.5 Z"/></g>
<g><path style="opacity:1" fill="#f1f3f6" d="M 328.5,73.5 C 333.833,73.5 339.167,73.5 344.5,73.5C 344.739,75.4672 344.406,77.3005 343.5,79C 338.78,79.2213 334.113,79.7213 329.5,80.5C 328.526,78.2573 328.192,75.924 328.5,73.5 Z"/></g>
<g><path style="opacity:1" fill="#eff1f6" d="M 376.5,76.5 C 378.977,79.4379 380.977,82.7712 382.5,86.5C 378.433,87.4797 374.433,88.313 370.5,89C 372.912,85.0095 374.912,80.8429 376.5,76.5 Z"/></g>
<g><path style="opacity:1" fill="#a5c0e5" d="M 422.5,79.5 C 423.461,81.2646 423.795,83.2646 423.5,85.5C 420.167,85.5 416.833,85.5 413.5,85.5C 416.287,84.5233 419.287,84.19 422.5,84.5C 422.5,82.8333 422.5,81.1667 422.5,79.5 Z"/></g>
<g><path style="opacity:1" fill="#baceea" d="M 156.5,79.5 C 156.5,83.1667 156.5,86.8333 156.5,90.5C 165.349,90.1736 174.016,90.507 182.5,91.5C 173.5,91.5 164.5,91.5 155.5,91.5C 155.183,87.2984 155.517,83.2984 156.5,79.5 Z"/></g>
</svg>
