<?xml version="1.0" encoding="UTF-8"?>
<!DOCTYPE svg PUBLIC "-//W3C//DTD SVG 1.1//EN" "http://www.w3.org/Graphics/SVG/1.1/DTD/svg11.dtd">
<svg xmlns="http://www.w3.org/2000/svg" version="1.1" width="108px" height="112px" style="shape-rendering:geometricPrecision; text-rendering:geometricPrecision; image-rendering:optimizeQuality; fill-rule:evenodd; clip-rule:evenodd" xmlns:xlink="http://www.w3.org/1999/xlink">
<g><path style="opacity:1" fill="#f6f6f7" d="M -0.5,-0.5 C 35.5,-0.5 71.5,-0.5 107.5,-0.5C 107.5,36.8333 107.5,74.1667 107.5,111.5C 71.5,111.5 35.5,111.5 -0.5,111.5C -0.5,74.1667 -0.5,36.8333 -0.5,-0.5 Z"/></g>
<g><path style="opacity:1" fill="#6289d7" d="M 48.5,4.5 C 66.4474,10.0383 84.4474,15.3716 102.5,20.5C 102.833,42.8433 102.5,65.1766 101.5,87.5C 86.2422,94.1958 70.7422,100.196 55,105.5C 37.8594,100.397 20.6927,95.3974 3.5,90.5C 3.33337,68.1642 3.50004,45.8308 4,23.5C 18.7146,16.8734 33.5479,10.5401 48.5,4.5 Z"/></g>
<g><path style="opacity:1" fill="#f4f5f7" d="M 48.5,10.5 C 63.136,14.994 77.8027,19.494 92.5,24C 91.4495,25.3848 90.1161,26.3848 88.5,27C 78.6138,30.5502 68.9472,34.5502 59.5,39C 55.7636,39.6099 52.0969,39.2765 48.5,38C 36.5763,34.5815 24.9096,30.5815 13.5,26C 25.1921,20.7206 36.8588,15.554 48.5,10.5 Z"/></g>
<g><path style="opacity:1" fill="#f7f7f7" d="M 93.5,26.5 C 94.5,26.5 95.5,26.5 96.5,26.5C 96.8329,45.5117 96.4996,64.5117 95.5,83.5C 83.3844,88.9503 71.0511,93.9503 58.5,98.5C 57.1667,79.5 57.1667,60.5 58.5,41.5C 70.3722,36.7239 82.0389,31.7239 93.5,26.5 Z"/></g>
<g><path style="opacity:1" fill="#f7f7f7" d="M 9.5,28.5 C 24.4557,32.9889 39.4557,37.3222 54.5,41.5C 54.5,60.5 54.5,79.5 54.5,98.5C 39.4658,94.8777 24.6324,90.5444 10,85.5C 9.50005,66.5029 9.33338,47.5029 9.5,28.5 Z"/></g>
</svg>
